<svg width="960" height="960" viewBox="0 0 960 960" fill="none" xmlns="http://www.w3.org/2000/svg">
  <defs>
    <linearGradient id="fg" x1="180" y1="160" x2="820" y2="820" gradientUnits="userSpaceOnUse">
      <stop stop-color="#22C55E"/>
      <stop offset="0.5" stop-color="#38BDF8"/>
      <stop offset="1" stop-color="#A78BFA"/>
    </linearGradient>
  </defs>
  <rect x="140" y="190" width="680" height="520" rx="40" fill="#0B1220" stroke="url(#fg)" stroke-width="3"/>
  <path d="M140 290H820" stroke="url(#fg)" stroke-width="3" opacity="0.7"/>
  <circle cx="190" cy="240" r="10" fill="#22C55E"/>
  <circle cx="230" cy="240" r="10" fill="#38BDF8"/>
  <circle cx="270" cy="240" r="10" fill="#A78BFA"/>

  <rect x="200" y="350" width="240" height="60" rx="18" fill="#111B33"/>
  <rect x="220" y="372" width="160" height="16" rx="8" fill="#38BDF8" opacity="0.8"/>
  <rect x="200" y="440" width="520" height="60" rx="18" fill="#111B33"/>
  <rect x="220" y="462" width="300" height="16" rx="8" fill="#22C55E" opacity="0.8"/>
  <rect x="200" y="530" width="360" height="60" rx="18" fill="#111B33"/>
  <rect x="220" y="552" width="220" height="16" rx="8" fill="#A78BFA" opacity="0.8"/>

  <path d="M650 615C710 585 760 535 790 470" stroke="url(#fg)" stroke-width="10" stroke-linecap="round" opacity="0.7"/>
  <path d="M690 650C755 618 810 560 845 485" stroke="url(#fg)" stroke-width="10" stroke-linecap="round" opacity="0.45"/>
</svg>
