<svg width="1200" height="750" viewBox="0 0 1200 750" fill="none" xmlns="http://www.w3.org/2000/svg">
  <defs>
    <linearGradient id="q" x1="140" y1="120" x2="1060" y2="640" gradientUnits="userSpaceOnUse">
      <stop stop-color="#38BDF8" stop-opacity="0.65"/>
      <stop offset="1" stop-color="#22C55E" stop-opacity="0.55"/>
    </linearGradient>
  </defs>
  <rect width="1200" height="750" rx="40" fill="#0B1220"/>
  <path d="M180 560C260 450 350 430 470 470C580 506 650 600 760 610C890 620 970 520 1020 420" stroke="url(#q)" stroke-width="18" stroke-linecap="round" opacity="0.55"/>
  <rect x="120" y="140" width="360" height="220" rx="26" fill="#111B33" stroke="url(#q)" stroke-width="3"/>
  <rect x="160" y="190" width="280" height="34" rx="17" fill="#0B1220"/>
  <rect x="160" y="238" width="220" height="18" rx="9" fill="#38BDF8" opacity="0.8"/>
  <rect x="520" y="190" width="560" height="440" rx="30" fill="#111B33" stroke="url(#q)" stroke-width="3"/>
  <rect x="570" y="245" width="460" height="60" rx="20" fill="#0B1220"/>
  <rect x="570" y="330" width="360" height="60" rx="20" fill="#0B1220"/>
  <rect x="570" y="415" width="420" height="60" rx="20" fill="#0B1220"/>
  <rect x="570" y="500" width="300" height="60" rx="20" fill="#0B1220"/>
  <circle cx="1030" cy="145" r="18" fill="#22C55E" opacity="0.85"/>
  <circle cx="985" cy="145" r="18" fill="#38BDF8" opacity="0.85"/>
</svg>
