<svg width="1200" height="750" viewBox="0 0 1200 750" fill="none" xmlns="http://www.w3.org/2000/svg">
  <defs>
    <linearGradient id="r" x1="160" y1="120" x2="1040" y2="650" gradientUnits="userSpaceOnUse">
      <stop stop-color="#A78BFA" stop-opacity="0.65"/>
      <stop offset="0.55" stop-color="#38BDF8" stop-opacity="0.55"/>
      <stop offset="1" stop-color="#22C55E" stop-opacity="0.5"/>
    </linearGradient>
  </defs>
  <rect width="1200" height="750" rx="40" fill="#0B1220"/>
  <rect x="90" y="110" width="1020" height="540" rx="28" fill="#111B33" stroke="url(#r)" stroke-width="3"/>
  <rect x="120" y="150" width="240" height="460" rx="22" fill="#0B1220"/>
  <rect x="390" y="150" width="690" height="110" rx="22" fill="#0B1220"/>
  <rect x="420" y="190" width="260" height="16" rx="8" fill="#38BDF8" opacity="0.85"/>
  <rect x="390" y="290" width="330" height="320" rx="22" fill="#0B1220"/>
  <rect x="750" y="290" width="330" height="150" rx="22" fill="#0B1220"/>
  <rect x="750" y="460" width="330" height="150" rx="22" fill="#0B1220"/>
  <path d="M435 560C500 520 540 520 610 540C655 552 680 520 710 470" stroke="url(#r)" stroke-width="12" stroke-linecap="round" opacity="0.55"/>
  <circle cx="980" cy="365" r="32" fill="url(#r)" opacity="0.55"/>
</svg>
